<?xml version="1.0" encoding="UTF-8" standalone="no"?>
<!-- Created with Inkscape (http://www.inkscape.org/) -->

<svg
   xmlns:dc="http://purl.org/dc/elements/1.1/"
   xmlns:cc="http://creativecommons.org/ns#"
   xmlns:rdf="http://www.w3.org/1999/02/22-rdf-syntax-ns#"
   xmlns:svg="http://www.w3.org/2000/svg"
   xmlns="http://www.w3.org/2000/svg"
   xmlns:xlink="http://www.w3.org/1999/xlink"
   xmlns:sodipodi="http://sodipodi.sourceforge.net/DTD/sodipodi-0.dtd"
   xmlns:inkscape="http://www.inkscape.org/namespaces/inkscape"
   id="svg2"
   version="1.1"
   inkscape:version="0.91 r13725"
   width="392"
   height="390"
   viewBox="0 0 392 390"
   sodipodi:docname="enter.svg">
  <metadata
     id="metadata8">
    <rdf:RDF>
      <cc:Work
         rdf:about="">
        <dc:format>image/svg+xml</dc:format>
        <dc:type
           rdf:resource="http://purl.org/dc/dcmitype/StillImage" />
        <dc:title></dc:title>
      </cc:Work>
    </rdf:RDF>
  </metadata>
  <defs
     id="defs6">
    <linearGradient
       inkscape:collect="always"
       id="linearGradient4205">
      <stop
         style="stop-color:#efc460;stop-opacity:1;"
         offset="0"
         id="stop4207" />
      <stop
         style="stop-color:#efc460;stop-opacity:0;"
         offset="1"
         id="stop4209" />
    </linearGradient>
    <inkscape:perspective
       sodipodi:type="inkscape:persp3d"
       inkscape:vp_x="0 : 195 : 1"
       inkscape:vp_y="0 : 1000 : 0"
       inkscape:vp_z="392 : 195 : 1"
       inkscape:persp3d-origin="196 : 130 : 1"
       id="perspective3356" />
    <radialGradient
       inkscape:collect="always"
       xlink:href="#linearGradient4205"
       id="radialGradient4211"
       cx="196"
       cy="194.5"
       fx="196"
       fy="194.5"
       r="178.1909"
       gradientUnits="userSpaceOnUse"
       gradientTransform="matrix(1.5962779,0,0,1.8383352,-117.89819,-162.11688)" />
  </defs>
  <sodipodi:namedview
     pagecolor="#ffffff"
     bordercolor="#666666"
     borderopacity="1"
     objecttolerance="10"
     gridtolerance="10"
     guidetolerance="10"
     inkscape:pageopacity="0"
     inkscape:pageshadow="2"
     inkscape:window-width="2272"
     inkscape:window-height="1455"
     id="namedview4"
     showgrid="false"
     inkscape:zoom="2"
     inkscape:cx="169.90462"
     inkscape:cy="100.73335"
     inkscape:window-x="0"
     inkscape:window-y="0"
     inkscape:window-maximized="0"
     inkscape:current-layer="layer1"
     inkscape:snap-text-baseline="true" />
  <g
     id="g3338"
     transform="translate(883.5,204.5)">
    <path
       style="display:none;fill:#efc460;image-rendering:optimizeQuality"
       d="m -495.37307,-425.87895 c -44.94302,5.13414 -82.64744,22.64691 -113.82329,52.86809 -34.47117,33.41559 -53.66762,74.2433 -57.84594,123.02883 -1.45252,16.95948 -0.159,35.74597 3.72922,54.16154 15.38063,72.84655 73.50056,130.96648 146.34711,146.347109 18.41557,3.88822 37.20206,5.18174 54.16154,3.72922 48.78553,-4.17832 89.61324,-23.374769 123.02883,-57.845939 31.48086,-32.47532 49.08449,-71.69979 53.07176,-118.25465 2.75936,-32.21806 -4.02955,-67.63885 -18.70046,-97.56864 -10.38554,-21.18729 -22.5167,-37.6361 -40.27711,-54.6123 -34.75753,-33.2228 -77.93581,-51.07054 -126.69166,-52.36799 -8.25,-0.21954 -18.6,0.0121 -23,0.51473 z m 24.75,15.70596 c -3.4375,0.19527 -9.0625,0.19527 -12.5,0 -3.4375,-0.19527 -0.625,-0.35504 6.25,-0.35504 6.875,0 9.6875,0.15977 6.25,0.35504 z m -22,0.96533 c -1.2375,0.23836 -3.2625,0.23836 -4.5,0 -1.2375,-0.23835 -0.225,-0.43337 2.25,-0.43337 2.475,0 3.4875,0.19502 2.25,0.43337 z m 36,0 c -1.2375,0.23836 -3.2625,0.23836 -4.5,0 -1.2375,-0.23835 -0.225,-0.43337 2.25,-0.43337 2.475,0 3.4875,0.19502 2.25,0.43337 z m -44.5,0.9836 c -0.9625,0.25152 -2.5375,0.25152 -3.5,0 -0.9625,-0.25153 -0.175,-0.45733 1.75,-0.45733 1.925,0 2.7125,0.2058 1.75,0.45733 z m 52,0 c -0.9625,0.25152 -2.5375,0.25152 -3.5,0 -0.9625,-0.25153 -0.175,-0.45733 1.75,-0.45733 1.925,0 2.7125,0.2058 1.75,0.45733 z m -60.25,1.31067 c -1.65,0.41985 -3.9,0.77176 -5,0.78201 -1.5672,0.0146 -1.45899,-0.15463 0.5,-0.78201 1.375,-0.44035 3.625,-0.79225 5,-0.78201 2.2456,0.0167 2.19472,0.0963 -0.5,0.78201 z m 69.5,0 c 1.95899,0.62738 2.0672,0.79661 0.5,0.78201 -1.1,-0.0103 -3.35,-0.36216 -5,-0.78201 -2.69472,-0.68569 -2.7456,-0.76527 -0.5,-0.78201 1.375,-0.0102 3.625,0.34166 5,0.78201 z m -90.97677,5.58026 c -52.53638,17.46125 -93.55726,58.45719 -111.51076,111.44297 -1.95245,5.76223 -3.26833,8.90177 -2.92417,6.97677 1.08978,-6.09548 7.41805,-22.13063 12.93469,-32.77504 17.82349,-34.39066 44.28326,-60.28198 78.97701,-77.2803 11.38505,-5.57815 28.25194,-11.93669 31.5,-11.875 0.825,0.0157 -3.21454,1.59544 -8.97677,3.5106 z m 113.97677,1.13805 c 41.40317,15.27237 75.01237,45.01985 95.47701,84.50665 5.51664,10.64441 11.84491,26.67956 12.93469,32.77504 0.34416,1.925 -0.97172,-1.21454 -2.92417,-6.97677 -17.95019,-52.976 -58.53476,-93.56057 -111.51076,-111.51076 -5.76223,-1.95245 -8.90177,-3.26833 -6.97677,-2.92417 1.925,0.34416 7.775,2.20266 13,4.13001 z m -95.74565,50.74774 c 20.79084,4.40579 43.57394,19.00346 65.57123,42.01303 22.32214,23.34937 32.04874,44.21117 30.95553,66.39402 -0.51857,10.52248 -2.73906,17.43885 -8.9265,27.80423 -7.85879,13.16527 -26.1629,28.05213 -39.95199,32.4932 l -6.9396,2.23505 -6.55234,-6.45279 c -7.39019,-7.27791 -15.65287,-17.7519 -14.92857,-18.92385 0.26383,-0.42687 4.20078,-0.98052 8.74878,-1.23033 10.26661,-0.56393 16.87017,-3.48365 25.45997,-11.25697 11.5869,-10.48555 16.40509,-21.86585 14.29334,-33.76006 -2.1891,-12.32981 -10.35394,-25.4907 -25.24513,-40.69253 -14.98746,-15.30012 -29.96939,-25.86007 -42.73907,-30.12444 -5.23004,-1.74654 -8.17652,-2.09192 -15.08084,-1.76774 -11.11695,0.52199 -17.74046,3.64521 -26.94611,12.70604 -18.5146,18.22336 -17.35314,37.05619 3.90117,63.25635 l 7.02463,8.65926 -0.52271,6.84074 c -0.5078,6.64556 1.01323,17.49407 3.79388,27.05923 0.67449,2.32016 0.9236,4.52122 0.55359,4.89123 -1.07205,1.07205 -11.2674,-7.27907 -21.8483,-17.89619 -38.23999,-38.37088 -44.91817,-73.74175 -19.86681,-105.22422 9.92814,-12.47685 26.55745,-23.50109 40.55797,-26.8875 7.73949,-1.87201 20.21597,-1.93105 28.68788,-0.13576 z m 36.41753,61.78395 c 6.809,6.43845 15.32812,17.00745 15.32812,19.01639 0,1.15396 -1.82961,1.58331 -8.25,1.93601 -11.15189,0.61261 -17.82628,3.84619 -27.25773,13.20568 -14.1744,14.06626 -16.52369,27.38983 -7.95089,45.09192 10.60316,21.89459 42.04874,50.40452 63.44612,57.52301 9.45021,3.1439 21.28571,2.57035 29.42471,-1.42592 7.52236,-3.6935 18.439,-14.36151 22.10043,-21.59709 7.33719,-14.49947 3.06034,-31.10253 -13.11106,-50.89806 l -6.60566,-8.08604 -0.24873,-11.75795 c -0.15274,-7.22004 -0.87568,-13.88064 -1.87316,-17.25795 -0.89343,-3.025 -1.91307,-6.5125 -2.26586,-7.75 -1.30376,-4.57327 4.43113,-1.29988 14.13485,7.63168 2.79594,2.57345 5.92137,5.61665 9.30286,9.07723 21.3846,21.88479 33.07992,44.69575 33.13676,64.63113 0.0517,18.14095 -10.33591,37.48723 -27.5738,51.3544 -30.72249,24.71498 -66.7257,20.75979 -105.58208,-11.59888 -24.2631,-20.20574 -43.01184,-47.22956 -46.86565,-67.55064 -4.84988,-25.57329 7.24816,-50.07768 33.48,-67.81325 4.74553,-3.20849 17.64722,-8.87573 20.36875,-8.94725 0.72042,-0.0189 3.80833,2.32808 6.86202,5.21558 z m -171.27188,17.65 c -0.36648,2.29185 -0.87608,3.95725 -1.13245,3.70089 -0.25636,-0.25637 -0.15176,-2.32677 0.23245,-4.60089 0.38421,-2.27412 0.89381,-3.93952 1.13245,-3.70089 0.23863,0.23864 0.13403,2.30904 -0.23245,4.60089 z m 342.38201,2.1 c -0.0167,2.2456 -0.0963,2.19472 -0.78201,-0.5 -0.41985,-1.65 -0.77176,-3.9 -0.78201,-5 -0.0146,-1.5672 0.15463,-1.45899 0.78201,0.5 0.44035,1.375 0.79225,3.625 0.78201,5 z m -344.42825,11.1035 c -0.37804,4.06764 -0.88609,6.7995 -1.12899,6.07081 -0.52728,-1.58184 0.76104,-14.52183 1.38381,-13.89907 0.2379,0.2379 0.12323,3.76062 -0.25482,7.82826 z m 346.58861,3.31317 c 0.0928,6.30906 -0.63497,3.71585 -1.23956,-4.41667 -0.41334,-5.55985 -0.33258,-6.46525 0.31218,-3.5 0.47836,2.2 0.89568,5.7625 0.92738,7.91667 z m -348.20082,24.33333 c -0.19241,3.7125 -0.34983,0.675 -0.34983,-6.75 0,-7.425 0.15742,-10.4625 0.34983,-6.75 0.19241,3.7125 0.19241,9.7875 0,13.5 z m 349,0 c -0.19241,3.7125 -0.34983,0.675 -0.34983,-6.75 0,-7.425 0.15742,-10.4625 0.34983,-6.75 0.19241,3.7125 0.19241,9.7875 0,13.5 z m -347.44436,15.25 c 0.41334,5.55985 0.33258,6.46525 -0.31218,3.5 -0.87025,-4.00232 -1.3121,-12.20186 -0.6152,-11.41667 0.2034,0.22917 0.62072,3.79167 0.92738,7.91667 z m 346.22323,0.65395 c -0.38305,3.57684 -0.8911,6.30871 -1.129,6.07081 -0.2379,-0.2379 -0.12323,-3.76062 0.25482,-7.82826 0.37804,-4.06764 0.88609,-6.7995 1.12899,-6.07081 0.2429,0.7287 0.12823,4.25142 -0.25481,7.82826 z m -343.73841,14.84605 c 0.0146,1.5672 -0.15463,1.45899 -0.78201,-0.5 -0.44035,-1.375 -0.79225,-3.625 -0.782,-5 0.0167,-2.2456 0.0963,-2.19472 0.782,0.5 0.41985,1.65 0.77176,3.9 0.78201,5 z m 341.71799,-2.5 c -0.38421,2.27412 -0.89381,3.93952 -1.13245,3.70089 -0.23863,-0.23864 -0.13403,-2.30904 0.23245,-4.60089 0.36648,-2.29185 0.87608,-3.95725 1.13245,-3.70089 0.25636,0.25637 0.15176,2.32677 -0.23245,4.60089 z m -328.41208,39.97677 c 20.19583,42.28899 57.54659,75.13142 102.93531,90.51077 5.76223,1.95244 8.90177,3.26832 6.97677,2.92416 -6.09548,-1.08978 -22.13063,-7.41805 -32.77504,-12.93469 -33.31235,-17.26464 -59.1314,-43.16775 -76.06486,-76.31252 -5.24413,-10.26461 -11.53311,-26.35474 -12.5718,-32.16449 -0.34416,-1.925 0.97172,1.21454 2.92417,6.97677 1.95244,5.76222 5.8114,15.21222 8.57545,21 z m 322.94002,-19.80007 c -11.70508,35.31873 -37.05127,68.77795 -67.7529,89.43981 -15.0892,10.15486 -40.22497,21.81961 -51.27504,23.79519 -1.925,0.34416 1.21454,-0.97172 6.97677,-2.92416 52.81516,-17.8957 94.84885,-59.90491 111.25802,-111.19326 1.79586,-5.61314 3.40421,-9.80863 3.57411,-9.3233 0.16989,0.48532 -1.08154,5.0779 -2.78096,10.20572 z m -198.52794,115.8233 c 2.69472,0.68569 2.7456,0.76527 0.5,0.782 -1.375,0.0103 -3.625,-0.34165 -5,-0.782 -1.95899,-0.62738 -2.0672,-0.79661 -0.5,-0.78201 1.1,0.0103 3.35,0.36216 5,0.78201 z m 69.5,0 c -1.375,0.44035 -3.625,0.79225 -5,0.782 -2.2456,-0.0167 -2.19472,-0.0963 0.5,-0.782 1.65,-0.41985 3.9,-0.77176 5,-0.78201 1.5672,-0.0146 1.45899,0.15463 -0.5,0.78201 z m -61.25,1.68933 c -0.9625,0.25152 -2.5375,0.25152 -3.5,0 -0.9625,-0.25153 -0.175,-0.45733 1.75,-0.45733 1.925,0 2.7125,0.2058 1.75,0.45733 z m 52,0 c -0.9625,0.25152 -2.5375,0.25152 -3.5,0 -0.9625,-0.25153 -0.175,-0.45733 1.75,-0.45733 1.925,0 2.7125,0.2058 1.75,0.45733 z m -43.5,1.0164 c -1.2375,0.23836 -3.2625,0.23836 -4.5,0 -1.2375,-0.23835 -0.225,-0.43337 2.25,-0.43337 2.475,0 3.4875,0.19502 2.25,0.43337 z m 36,0 c -1.2375,0.23836 -3.2625,0.23836 -4.5,0 -1.2375,-0.23835 -0.225,-0.43337 2.25,-0.43337 2.475,0 3.4875,0.19502 2.25,0.43337 z m -14,1.03467 c -3.4375,0.19527 -9.0625,0.19527 -12.5,0 -3.4375,-0.19527 -0.625,-0.35504 6.25,-0.35504 6.875,0 9.6875,0.15977 6.25,0.35504 z"
       id="path3346"
       inkscape:connector-curvature="0"
       sodipodi:nodetypes="ssssssssssssssssssssssssssssssssssscsscscsssssscssssssssssssscscsssssssscsssssssssssssssscsssssssssscsscscscssscssssssssssssssssssssssssssscssscscsssssssssssssscsscscsscsssssssssssssssssssssss" />
  </g>
  <g
     inkscape:groupmode="layer"
     id="layer6"
     inkscape:label="logo">
    <g
       inkscape:groupmode="layer"
       id="layer3"
       inkscape:label="fill"
       style="display:none"
       sodipodi:insensitive="true">
      <circle
         style="display:inline;fill:#efc460;fill-opacity:1"
         id="path3432"
         cx="195.14412"
         cy="194.79709"
         r="178.1909" />
    </g>
    <g
       inkscape:groupmode="layer"
       id="layer1"
       inkscape:label="border"
       style="display:inline">
      <path
         inkscape:connector-curvature="0"
         style="display:inline;fill:#6bbde4;fill-opacity:0.40384617"
         d="M 195.54726,0.998696 A 194.22427,194.22427 0 0 0 1.3226141,195.22331 194.22427,194.22427 0 0 0 195.54726,389.44792 194.22427,194.22427 0 0 0 389.76986,195.22331 194.22427,194.22427 0 0 0 195.54726,0.998696 Z m -0.3731,17.728512 A 176.77669,176.77669 0 0 1 371.94956,195.50456 176.77669,176.77669 0 0 1 195.17416,372.2819 176.77669,176.77669 0 0 1 18.396834,195.50456 176.77669,176.77669 0 0 1 195.17416,18.727208 Z"
         id="path3432-7-1-6" />
    </g>
    <g
       inkscape:groupmode="layer"
       id="layer2"
       inkscape:label="fillblend">
      <ellipse
         style="display:inline;fill:url(#radialGradient4211);fill-opacity:1"
         id="path3432-8"
         cy="195.43933"
         cx="194.97227"
         rx="177.04187"
         ry="176.95348" />
    </g>
    <g
       inkscape:groupmode="layer"
       id="layer5"
       inkscape:label="text"
       style="display:inline"
       sodipodi:insensitive="true">
      <text
         xml:space="preserve"
         style="font-style:normal;font-weight:normal;font-size:97.66365814px;line-height:125%;font-family:sans-serif;letter-spacing:0px;word-spacing:0px;fill:#f2f2f2;fill-opacity:1;stroke:none;stroke-width:1px;stroke-linecap:butt;stroke-linejoin:miter;stroke-opacity:1"
         x="32.340626"
         y="225.51851"
         id="text3344"
         sodipodi:linespacing="125%"><tspan
           sodipodi:role="line"
           id="tspan3346"
           x="32.340626"
           y="225.51851">ENTER</tspan></text>
    </g>
  </g>
</svg>
